<svg width="18" height="18" viewBox="0 0 18 18" fill="none" xmlns="http://www.w3.org/2000/svg">
<path d="M9.46936 14.0283L13.4069 16.5283C13.9147 16.8487 14.5397 16.3721 14.3912 15.7862L13.2506 11.3018C13.2198 11.1775 13.2247 11.047 13.2648 10.9254C13.3048 10.8037 13.3785 10.6959 13.4772 10.6143L17.0084 7.66896C17.4694 7.28615 17.235 6.51271 16.6334 6.47365L12.024 6.17678C11.8983 6.16946 11.7774 6.12566 11.6761 6.05074C11.5748 5.97582 11.4975 5.87302 11.4537 5.7549L9.73498 1.42678C9.68949 1.3017 9.6066 1.19365 9.49759 1.1173C9.38857 1.04095 9.2587 1 9.12561 1C8.99251 1 8.86264 1.04095 8.75363 1.1173C8.64461 1.19365 8.56173 1.3017 8.51623 1.42678L6.79748 5.7549C6.75368 5.87302 6.67641 5.97582 6.57513 6.05074C6.47385 6.12566 6.35294 6.16946 6.22717 6.17678L1.61779 6.47365C1.01623 6.51271 0.781857 7.28615 1.24279 7.66896L4.77404 10.6143C4.87274 10.6959 4.94638 10.8037 4.98646 10.9254C5.02655 11.047 5.03145 11.1775 5.00061 11.3018L3.94592 15.458C3.76623 16.1612 4.51623 16.7315 5.11779 16.3487L8.78186 14.0283C8.8846 13.963 9.00385 13.9283 9.12561 13.9283C9.24737 13.9283 9.36661 13.963 9.46936 14.0283V14.0283Z" stroke="#195A00" stroke-linecap="round" stroke-linejoin="round"/>
</svg>
