<svg width="55" height="57" viewBox="0 0 55 57" fill="none" xmlns="http://www.w3.org/2000/svg">
<path d="M10.4843 21.4416C10.2279 21.441 9.97488 21.3813 9.74376 21.2667C9.51264 21.1522 9.3093 20.9858 9.14862 20.7797C8.98794 20.5736 8.874 20.3331 8.81516 20.0757C8.75632 19.8183 8.75406 19.5505 8.80854 19.2921C10.1835 12.4671 18.0253 7.25974 27.4999 7.25974C36.9746 7.25974 44.8163 12.4671 46.1913 19.2921C46.2458 19.5505 46.2436 19.8183 46.1847 20.0757C46.1259 20.3331 46.0119 20.5736 45.8513 20.7797C45.6906 20.9858 45.4872 21.1522 45.2561 21.2667C45.025 21.3813 44.772 21.441 44.5156 21.4416H10.4843Z" stroke="black" stroke-width="2" stroke-linecap="round" stroke-linejoin="round"/>
<path d="M44.6875 37.3961V40.9416C44.6875 42.8222 43.9632 44.6258 42.6739 45.9556C41.3845 47.2854 39.6359 48.0325 37.8125 48.0325H17.1875C15.3641 48.0325 13.6155 47.2854 12.3261 45.9556C11.0368 44.6258 10.3125 42.8222 10.3125 40.9416V37.3961" stroke="black" stroke-width="2" stroke-linecap="round" stroke-linejoin="round"/>
<path d="M6.01562 39.1688L14.6094 35.6234L23.2031 39.1688L31.7969 35.6234L40.3906 39.1688L48.9844 35.6234" stroke="black" stroke-width="2" stroke-linecap="round" stroke-linejoin="round"/>
<path d="M5.15625 28.5325H49.8438" stroke="black" stroke-width="2" stroke-linecap="round" stroke-linejoin="round"/>
</svg>
